<?xml version="1.0" standalone="no"?>
<!DOCTYPE svg PUBLIC "-//W3C//DTD SVG 20010904//EN"
 "http://www.w3.org/TR/2001/REC-SVG-20010904/DTD/svg10.dtd">
<svg version="1.0" xmlns="http://www.w3.org/2000/svg"
 width="15.000000pt" height="15.000000pt" viewBox="0 0 24.000000 24.000000"
 preserveAspectRatio="xMidYMid meet">

<g transform="translate(0.000000,24.000000) scale(0.100000,-0.100000)"
fill="#000000" stroke="none">
<path d="M166 211 c-3 -4 6 -18 19 -31 22 -20 25 -21 31 -6 11 29 -34 63 -50
37z"/>
<path d="M83 128 c-29 -29 -55 -66 -59 -82 -7 -28 -6 -29 22 -22 16 4 54 31
83 61 54 53 55 54 36 75 -10 11 -21 20 -24 20 -4 0 -30 -24 -58 -52z"/>
</g>
</svg>
