<?xml version="1.0" standalone="no"?>
<!DOCTYPE svg PUBLIC "-//W3C//DTD SVG 20010904//EN"
 "http://www.w3.org/TR/2001/REC-SVG-20010904/DTD/svg10.dtd">
<svg version="1.0" xmlns="http://www.w3.org/2000/svg"
 width="12.000000pt" height="12.000000pt" viewBox="0 0 512.000000 512.000000"
 preserveAspectRatio="xMidYMid meet">

<g transform="translate(0.000000,512.000000) scale(0.100000,-0.100000)"
fill="#FF0000" stroke="none">
<path d="M2380 5014 c-98 -17 -145 -38 -174 -77 -20 -28 -21 -43 -27 -565 -5
-580 -4 -568 -63 -714 -39 -97 -87 -167 -178 -263 -102 -107 -224 -198 -361
-266 -108 -54 -239 -109 -263 -109 -8 0 -28 16 -45 35 -17 19 -54 46 -83 60
l-53 26 -480 -3 -480 -3 -50 -34 c-54 -37 -88 -80 -109 -138 -11 -31 -13 -264
-14 -1279 0 -1365 -3 -1289 61 -1367 17 -21 54 -50 83 -65 l51 -27 438 -3
c485 -3 517 -1 598 54 l51 34 49 -43 c72 -62 163 -114 254 -145 l80 -27 1245
0 1245 0 94 24 c167 42 308 126 409 245 49 58 113 179 136 256 9 30 85 474
168 985 167 1025 173 1083 134 1229 -56 211 -190 378 -378 470 -152 75 -154
76 -819 76 l-587 0 -5 478 c-5 494 -11 565 -54 697 -58 181 -186 330 -350 407
-132 62 -338 83 -523 52z m375 -264 c156 -54 254 -188 285 -390 6 -37 10 -288
10 -589 0 -508 1 -526 20 -567 38 -77 5 -74 737 -74 707 0 710 0 817 -58 123
-66 215 -203 236 -348 11 -85 18 -34 -155 -1114 -145 -908 -140 -878 -167
-950 -47 -122 -115 -198 -224 -250 -140 -67 -67 -64 -1359 -68 -792 -2 -1190
1 -1232 8 -88 15 -161 50 -225 109 -72 66 -113 128 -138 209 -19 62 -20 96
-20 1082 l0 1018 38 7 c52 9 191 64 290 114 369 186 614 447 716 766 43 136
46 178 46 655 l0 459 38 4 c80 10 227 -2 287 -23z m-1667 -3067 l2 -1203 -420
0 -420 0 0 1205 0 1205 418 -2 417 -3 3 -1202z"/>
</g>
</svg>
