<?xml version="1.0" standalone="no"?>
<!DOCTYPE svg PUBLIC "-//W3C//DTD SVG 20010904//EN"
 "http://www.w3.org/TR/2001/REC-SVG-20010904/DTD/svg10.dtd">
<svg version="1.0" xmlns="http://www.w3.org/2000/svg"
 width="23.000000pt" height="23.000000pt" viewBox="0 0 512.000000 512.000000"
 preserveAspectRatio="xMidYMid meet">

<g transform="translate(0.000000,512.000000) scale(0.100000,-0.100000)"
fill="#000000" stroke="none">
<path d="M2386 4790 c-140 -22 -309 -82 -425 -149 -106 -63 -183 -125 -278
-225 -144 -153 -232 -314 -290 -534 -24 -88 -26 -115 -27 -282 0 -169 3 -194
26 -282 37 -134 88 -255 150 -356 60 -96 209 -258 291 -317 31 -22 56 -42 57
-45 0 -4 -17 -12 -37 -19 -21 -8 -86 -37 -144 -66 -488 -242 -855 -693 -992
-1220 -48 -184 -58 -273 -64 -565 -5 -273 -4 -275 19 -320 15 -29 37 -53 63
-67 l40 -23 1785 0 1785 0 39 23 c22 12 49 38 60 57 20 33 21 51 21 295 0 286
-10 395 -55 572 -119 473 -414 887 -815 1146 -86 55 -248 139 -315 163 -28 10
-50 21 -50 24 0 3 15 14 32 25 47 28 202 179 254 249 99 132 164 268 212 445
23 87 25 114 25 281 0 167 -2 194 -25 281 -68 253 -169 423 -352 596 -157 147
-334 242 -546 293 -107 25 -341 36 -444 20z m277 -505 c180 -47 309 -187 337
-368 28 -183 -71 -381 -230 -458 l-49 -24 -1 -53 c0 -64 -18 -108 -59 -146
-25 -24 -42 -30 -91 -34 -52 -4 -66 -1 -99 21 -61 41 -71 73 -71 237 0 163 10
197 69 235 20 13 61 26 91 30 43 6 61 14 87 40 29 29 33 40 33 84 0 44 -5 56
-32 86 -40 43 -88 54 -140 32 -47 -20 -66 -50 -78 -122 -12 -72 -46 -118 -104
-140 -107 -41 -216 38 -216 155 0 109 50 221 134 306 115 114 269 158 419 119z
m-40 -1146 c67 -35 105 -108 92 -176 -9 -47 -68 -110 -116 -123 -49 -13 -106
1 -148 36 -79 66 -62 212 31 257 38 19 110 22 141 6z"/>
</g>
</svg>
